<svg viewBox="0 0 200 200" xmlns="http://www.w3.org/2000/svg">
  <!-- Outer Circle -->
  <circle cx="100" cy="100" r="95" fill="none" stroke="#8B1538" stroke-width="8"/>
  
  <!-- Inner decorative circles -->
  <circle cx="100" cy="100" r="85" fill="none" stroke="#8B1538" stroke-width="1" opacity="0.3"/>
  
  <!-- Center Shield -->
  <g>
    <!-- Shield outline -->
    <path d="M 100 55 L 75 75 L 75 100 Q 75 130 100 150 Q 125 130 125 100 L 125 75 Z" fill="none" stroke="#8B1538" stroke-width="2"/>
    <!-- Shield fill -->
    <path d="M 100 55 L 75 75 L 75 100 Q 75 130 100 150 Q 125 130 125 100 L 125 75 Z" fill="#8B1538" opacity="0.1"/>
  </g>
  
  <!-- UM Letters in Shield -->
  <text x="100" y="105" font-family="Arial, sans-serif" font-size="32" font-weight="bold" text-anchor="middle" fill="#8B1538">UM</text>
  
  <!-- Stars (decorative) -->
  <g fill="#8B1538">
    <circle cx="85" cy="75" r="2"/>
    <circle cx="100" cy="70" r="2"/>
    <circle cx="115" cy="75" r="2"/>
  </g>
  
  <!-- Laurel wreaths (decorative) -->
  <g stroke="#8B1538" fill="none" stroke-width="1">
    <!-- Left wreath -->
    <path d="M 70 95 Q 65 105 70 115" opacity="0.5"/>
    <!-- Right wreath -->
    <path d="M 130 95 Q 135 105 130 115" opacity="0.5"/>
  </g>
  
  <!-- Text Arc (top) -->
  <defs>
    <path id="topArc" d="M 30,100 A 70,70 0 0,1 170,100" fill="none"/>
  </defs>
  <text font-family="Arial, sans-serif" font-size="14" font-weight="bold" letter-spacing="2" fill="#8B1538">
    <textPath href="#topArc" startOffset="50%" text-anchor="middle">
      UNIVERSITY OF MINDANAO
    </textPath>
  </text>
  
  <!-- Text Arc (bottom) -->
  <defs>
    <path id="bottomArc" d="M 170,100 A 70,70 0 0,1 30,100" fill="none"/>
  </defs>
  <text font-family="Arial, sans-serif" font-size="12" font-weight="bold" letter-spacing="1" fill="#8B1538">
    <textPath href="#bottomArc" startOffset="50%" text-anchor="middle">
      DAVAO CITY • 1946
    </textPath>
  </text>
  
  <!-- Motto banner -->
  <g>
    <rect x="50" y="125" width="100" height="15" fill="white" stroke="#8B1538" stroke-width="1"/>
    <text x="100" y="135" font-family="Arial, sans-serif" font-size="10" font-weight="bold" text-anchor="middle" fill="#8B1538">VINCTIT OMNIA VERITAS</text>
  </g>
</svg>